<svg id="svg" version="1.1" xmlns="http://www.w3.org/2000/svg" xmlns:xlink="http://www.w3.org/1999/xlink" width="400" height="195.9183673469388" viewBox="0, 0, 400,195.9183673469388"><g id="svgg"><path id="path0" d="M30.671 70.366 C 29.409 70.531,27.560 71.167,25.911 72.002 C 25.349 72.287,23.877 72.912,22.641 73.389 C 18.850 74.855,17.635 75.866,14.986 79.765 C 14.144 81.004,13.082 82.564,12.626 83.231 C 10.338 86.575,9.813 92.971,11.542 96.439 C 12.564 98.490,16.308 103.165,17.888 104.362 C 19.712 105.745,24.180 107.222,28.814 107.973 C 30.491 108.245,69.040 108.254,72.807 107.983 C 78.368 107.584,85.245 105.218,87.081 103.073 C 89.355 100.416,91.203 89.993,90.232 85.296 C 89.029 79.469,87.519 76.514,85.122 75.291 C 80.429 72.897,73.537 70.806,68.888 70.366 C 66.369 70.128,32.489 70.127,30.671 70.366 M330.230 70.376 C 325.789 70.751,323.828 71.130,320.076 72.339 C 312.320 74.840,311.530 75.382,308.960 79.961 C 308.445 80.877,307.684 82.167,307.268 82.827 C 304.660 86.968,305.024 91.270,308.575 98.256 C 311.881 104.762,312.325 105.134,319.059 107.046 L 322.685 108.075 342.969 108.141 C 369.257 108.226,369.238 108.227,375.151 106.105 C 381.420 103.854,381.799 103.501,383.527 98.316 C 385.752 91.640,385.734 88.537,383.433 82.019 C 381.524 76.613,381.353 76.429,375.570 73.601 C 368.602 70.194,369.597 70.316,348.457 70.252 C 339.564 70.225,331.362 70.280,330.230 70.376 M134.897 72.416 C 127.008 74.131,125.184 75.140,121.170 80.008 C 117.626 84.305,117.222 85.194,117.054 89.074 C 116.862 93.517,117.442 95.329,119.919 98.031 C 120.740 98.925,122.065 100.528,122.863 101.592 C 125.036 104.485,126.595 105.501,129.642 106.007 C 133.283 106.613,135.796 106.633,200.392 106.575 L 265.458 106.516 268.594 105.572 C 274.805 103.702,274.932 103.580,277.088 97.403 C 279.162 91.457,279.244 88.840,277.517 83.586 C 275.409 77.170,275.020 76.701,270.456 75.058 C 261.375 71.789,269.994 72.132,197.060 72.143 C 146.772 72.151,135.898 72.199,134.897 72.416 " stroke="none" fill="#e4b264" fill-rule="evenodd"></path><path id="path1" d="M28.221 65.554 C 25.998 66.000,24.869 66.613,17.142 71.574 C 9.661 76.377,7.183 81.162,7.168 90.838 C 7.150 101.602,9.786 105.326,21.460 111.028 C 28.108 114.275,26.057 114.059,50.269 114.058 C 77.072 114.058,76.821 114.081,81.175 111.164 C 82.286 110.420,84.341 109.228,85.742 108.517 C 89.561 106.576,90.281 105.748,91.815 101.526 C 92.293 100.211,93.166 98.097,93.756 96.827 C 96.465 90.994,96.582 87.385,94.214 82.652 C 93.388 81.001,92.482 79.037,92.200 78.287 C 90.792 74.539,89.591 73.138,86.215 71.303 C 85.090 70.692,83.332 69.596,82.310 68.868 C 77.234 65.257,77.270 65.261,49.878 65.283 C 33.974 65.295,29.215 65.355,28.221 65.554 M325.691 65.469 C 321.625 65.761,320.248 66.226,315.476 68.915 C 304.222 75.258,301.203 79.816,301.478 90.054 C 301.728 99.377,305.897 105.928,314.001 109.734 C 315.112 110.256,316.992 111.225,318.177 111.887 C 319.363 112.550,320.906 113.288,321.607 113.528 L 322.881 113.963 342.969 114.026 C 371.039 114.113,370.617 114.154,375.457 110.880 C 376.563 110.132,378.454 109.078,379.659 108.539 C 383.841 106.666,384.627 105.928,386.611 102.013 C 387.321 100.609,388.312 98.756,388.813 97.893 C 391.937 92.512,391.812 87.340,388.436 82.326 C 387.753 81.312,386.741 79.505,386.187 78.311 C 384.213 74.056,383.663 73.377,380.823 71.701 C 378.599 70.388,377.827 69.849,376.091 68.398 C 373.581 66.302,372.136 65.764,368.190 65.457 C 365.386 65.239,328.750 65.249,325.691 65.469 M132.897 66.068 C 128.458 67.000,121.834 71.140,117.099 75.943 C 112.691 80.413,111.622 93.488,115.096 100.441 C 116.175 102.601,117.697 104.285,122.073 108.163 C 125.642 111.326,126.956 112.055,130.426 112.795 C 134.656 113.698,134.230 113.693,201.176 113.631 L 264.674 113.572 265.948 113.138 C 266.649 112.899,268.104 112.121,269.182 111.408 C 270.260 110.695,272.367 109.489,273.864 108.728 C 277.358 106.951,278.306 106.043,279.961 102.886 C 280.608 101.652,281.833 99.716,282.685 98.582 C 285.023 95.470,285.524 93.987,285.540 90.147 C 285.556 86.216,285.058 84.537,282.897 81.235 C 282.121 80.049,281.195 78.550,280.838 77.903 C 278.966 74.511,277.764 73.356,274.206 71.533 C 272.952 70.891,271.352 69.918,270.652 69.371 C 267.221 66.695,265.873 66.137,262.127 65.846 C 256.758 65.428,134.948 65.638,132.897 66.068 M264.037 66.406 C 265.993 66.811,267.155 67.377,269.574 69.104 C 270.867 70.027,272.984 71.320,274.277 71.978 C 277.172 73.449,278.720 74.892,280.062 77.367 C 280.545 78.259,281.623 80.057,282.456 81.364 C 284.767 84.988,285.363 87.320,285.053 91.524 C 284.826 94.601,284.555 95.241,281.945 98.857 C 281.329 99.710,280.327 101.386,279.719 102.580 C 278.102 105.754,277.056 106.738,273.287 108.637 C 271.676 109.449,269.654 110.562,268.793 111.110 C 267.932 111.659,266.742 112.305,266.147 112.546 L 265.066 112.984 200.294 113.038 C 129.958 113.096,134.031 113.152,129.544 112.069 C 124.605 110.877,116.614 103.642,114.671 98.603 C 112.313 92.488,113.225 81.911,116.506 77.313 C 119.486 73.136,128.462 67.375,133.587 66.349 C 135.432 65.979,262.244 66.035,264.037 66.406 M69.775 69.778 C 74.208 70.323,76.291 70.935,82.242 73.440 C 87.764 75.765,88.202 76.278,90.078 82.607 L 91.008 85.742 90.994 88.682 C 90.977 92.106,90.665 94.167,89.559 98.143 C 87.984 103.807,87.520 104.276,81.119 106.679 C 75.097 108.940,73.981 109.017,48.408 108.932 L 29.299 108.868 25.380 107.837 C 18.133 105.930,13.897 102.585,11.051 96.521 C 8.965 92.076,9.921 85.770,13.412 80.950 C 14.080 80.029,15.034 78.693,15.532 77.983 C 17.266 75.510,18.985 74.286,23.112 72.585 C 24.036 72.204,25.431 71.541,26.213 71.111 C 26.994 70.682,27.634 70.384,27.634 70.449 C 27.634 70.514,27.817 70.469,28.042 70.349 C 29.357 69.645,30.488 69.605,49.491 69.589 C 61.310 69.579,68.721 69.648,69.775 69.778 M367.775 70.019 C 370.307 70.382,371.688 70.829,373.503 71.876 C 374.225 72.292,375.940 73.175,377.314 73.838 C 381.716 75.963,382.258 76.760,385.142 85.350 C 386.137 88.316,385.836 93.132,384.387 97.403 C 382.234 103.751,381.944 104.043,375.306 106.556 C 369.036 108.929,368.517 108.968,343.814 108.960 C 321.963 108.952,323.716 109.106,315.630 106.484 C 313.002 105.632,311.154 104.207,309.923 102.083 C 303.289 90.632,303.258 87.030,309.714 77.615 C 310.349 76.689,312.354 74.669,312.639 74.669 C 312.730 74.669,313.043 74.492,313.336 74.276 C 313.628 74.060,314.838 73.541,316.023 73.123 C 317.208 72.705,318.707 72.168,319.353 71.929 C 323.273 70.480,324.439 70.240,330.132 69.702 C 332.805 69.450,365.739 69.727,367.775 70.019 " stroke="none" fill="#5c5c8c" fill-rule="evenodd"></path><path id="path2" d="M133.587 66.349 C 128.462 67.375,119.486 73.136,116.506 77.313 C 113.225 81.911,112.313 92.488,114.671 98.603 C 116.614 103.642,124.605 110.877,129.544 112.069 C 134.031 113.152,129.958 113.096,200.294 113.038 L 265.066 112.984 266.147 112.546 C 266.742 112.305,267.932 111.659,268.793 111.110 C 269.654 110.562,271.676 109.449,273.287 108.637 C 277.056 106.738,278.102 105.754,279.719 102.580 C 280.327 101.386,281.329 99.710,281.945 98.857 C 284.555 95.241,284.826 94.601,285.053 91.524 C 285.363 87.320,284.767 84.988,282.456 81.364 C 281.623 80.057,280.545 78.259,280.062 77.367 C 278.720 74.892,277.172 73.449,274.277 71.978 C 272.984 71.320,270.867 70.027,269.574 69.104 C 267.155 67.377,265.993 66.811,264.037 66.406 C 262.244 66.035,135.432 65.979,133.587 66.349 M29.659 69.868 C 28.994 70.012,28.266 70.229,28.042 70.349 C 27.817 70.469,27.634 70.514,27.634 70.449 C 27.634 70.384,26.994 70.682,26.213 71.111 C 25.431 71.541,24.036 72.204,23.112 72.585 C 18.985 74.286,17.266 75.510,15.532 77.983 C 15.034 78.693,14.080 80.029,13.412 80.950 C 9.921 85.770,8.965 92.076,11.051 96.521 C 13.897 102.585,18.133 105.930,25.380 107.837 L 29.299 108.868 48.408 108.932 C 73.981 109.017,75.097 108.940,81.119 106.679 C 87.520 104.276,87.984 103.807,89.559 98.143 C 90.665 94.167,90.977 92.106,90.994 88.682 L 91.008 85.742 90.078 82.607 C 88.202 76.278,87.764 75.765,82.242 73.440 C 76.291 70.935,74.208 70.323,69.775 69.778 C 67.123 69.452,31.201 69.532,29.659 69.868 M330.132 69.702 C 324.439 70.240,323.273 70.480,319.353 71.929 C 318.707 72.168,317.208 72.705,316.023 73.123 C 314.838 73.541,313.628 74.060,313.336 74.276 C 313.043 74.492,312.730 74.669,312.639 74.669 C 311.904 74.669,309.884 77.215,307.520 81.121 C 305.050 85.203,304.743 86.391,305.131 90.348 C 305.470 93.812,306.279 95.793,309.923 102.083 C 311.154 104.207,313.002 105.632,315.630 106.484 C 323.716 109.106,321.963 108.952,343.814 108.960 C 368.517 108.968,369.036 108.929,375.306 106.556 C 381.944 104.043,382.234 103.751,384.387 97.403 C 385.836 93.132,386.137 88.316,385.142 85.350 C 382.258 76.760,381.716 75.963,377.314 73.838 C 375.940 73.175,374.225 72.292,373.503 71.876 C 369.835 69.761,369.317 69.716,348.261 69.668 C 338.721 69.646,330.563 69.661,330.132 69.702 M68.888 70.366 C 73.537 70.806,80.429 72.897,85.122 75.291 C 87.519 76.514,89.029 79.469,90.232 85.296 C 91.203 89.993,89.355 100.416,87.081 103.073 C 85.245 105.218,78.368 107.584,72.807 107.983 C 69.040 108.254,30.491 108.245,28.814 107.973 C 24.180 107.222,19.712 105.745,17.888 104.362 C 16.308 103.165,12.564 98.490,11.542 96.439 C 9.813 92.971,10.338 86.575,12.626 83.231 C 13.082 82.564,14.144 81.004,14.986 79.765 C 17.635 75.866,18.850 74.855,22.641 73.389 C 23.877 72.912,25.349 72.287,25.911 72.002 C 27.560 71.167,29.409 70.531,30.671 70.366 C 32.489 70.127,66.369 70.128,68.888 70.366 M366.977 70.628 C 370.270 71.085,370.800 71.268,375.570 73.601 C 381.353 76.429,381.524 76.613,383.433 82.019 C 385.734 88.537,385.752 91.640,383.527 98.316 C 381.799 103.501,381.420 103.854,375.151 106.105 C 369.238 108.227,369.257 108.226,342.969 108.141 L 322.685 108.075 319.059 107.046 C 312.325 105.134,311.881 104.762,308.575 98.256 C 305.024 91.270,304.660 86.968,307.268 82.827 C 307.684 82.167,308.445 80.877,308.960 79.961 C 311.530 75.382,312.320 74.840,320.076 72.339 C 326.395 70.302,327.932 70.189,348.457 70.252 C 362.284 70.294,364.966 70.349,366.977 70.628 M261.167 72.499 C 264.452 72.879,264.234 72.818,270.456 75.058 C 275.020 76.701,275.409 77.170,277.517 83.586 C 279.244 88.840,279.162 91.457,277.088 97.403 C 274.932 103.580,274.805 103.702,268.594 105.572 L 265.458 106.516 200.392 106.575 C 135.796 106.633,133.283 106.613,129.642 106.007 C 126.595 105.501,125.036 104.485,122.863 101.592 C 122.065 100.528,120.740 98.925,119.919 98.031 C 117.442 95.329,116.862 93.517,117.054 89.074 C 117.222 85.194,117.626 84.305,121.170 80.008 C 125.184 75.140,127.008 74.131,134.897 72.416 C 137.094 71.939,257.003 72.017,261.167 72.499 " stroke="none" fill="#8c6c5c" fill-rule="evenodd"></path><path id="path3" d="M27.634 64.381 C 24.616 64.991,23.459 65.577,18.650 68.932 C 7.799 76.504,6.386 78.868,6.128 89.890 C 5.950 97.441,7.041 101.943,9.760 104.880 C 11.460 106.716,20.451 112.617,23.455 113.868 C 27.219 115.435,25.331 115.323,49.290 115.395 C 78.916 115.483,78.104 115.566,82.509 112.011 C 83.669 111.074,85.229 110.069,86.650 109.342 C 90.252 107.498,91.016 106.636,92.389 102.862 C 93.405 100.069,93.734 99.386,95.131 97.161 C 97.042 94.116,97.243 93.519,97.590 89.861 C 97.929 86.282,97.614 85.128,95.400 81.850 C 94.217 80.099,93.642 78.975,92.498 76.181 C 91.581 73.942,90.427 72.485,88.694 71.379 C 87.898 70.871,86.511 69.988,85.612 69.417 C 84.714 68.846,83.449 67.935,82.803 67.393 C 80.551 65.505,78.579 64.822,74.103 64.383 C 69.960 63.976,29.646 63.974,27.634 64.381 M324.743 64.289 C 318.987 64.741,316.390 65.954,308.378 71.932 C 301.880 76.781,299.927 81.254,300.341 90.348 C 300.813 100.728,303.605 105.260,312.819 110.608 C 314.365 111.506,316.362 112.688,317.257 113.236 C 321.028 115.545,320.014 115.471,346.499 115.378 C 373.969 115.281,372.240 115.475,376.351 112.020 C 377.318 111.207,378.722 110.256,379.536 109.864 C 380.335 109.478,381.672 108.833,382.506 108.430 C 384.615 107.412,385.883 106.084,387.336 103.375 C 387.970 102.192,389.053 100.416,389.741 99.427 C 392.054 96.105,392.451 94.728,392.438 90.054 C 392.426 85.463,392.098 84.502,389.484 81.385 C 388.533 80.250,387.839 79.101,386.754 76.865 C 384.990 73.228,384.292 72.421,381.298 70.560 C 380.105 69.818,378.496 68.641,377.724 67.944 C 374.716 65.228,373.389 64.657,369.228 64.289 C 366.638 64.060,327.667 64.060,324.743 64.289 M135.522 64.697 C 129.923 65.222,126.469 66.565,123.453 69.390 C 122.977 69.836,121.926 70.723,121.117 71.361 C 119.245 72.838,119.443 72.686,118.130 73.654 C 114.920 76.020,113.917 77.899,112.779 83.684 C 112.191 86.673,112.254 93.228,112.902 96.469 C 113.935 101.632,114.947 103.194,120.297 107.888 C 121.403 108.858,122.988 110.257,123.818 110.996 C 126.211 113.126,127.695 113.725,132.147 114.358 C 134.769 114.731,263.851 114.800,265.595 114.429 C 267.086 114.113,268.038 113.620,270.429 111.925 C 271.593 111.100,273.627 109.857,274.949 109.162 C 277.906 107.607,279.070 106.453,280.611 103.545 C 281.193 102.448,282.472 100.549,283.505 99.249 C 286.216 95.838,286.648 94.343,286.476 88.976 C 286.365 85.506,285.887 83.582,284.699 81.823 C 284.336 81.284,283.278 79.696,282.349 78.295 C 279.066 73.344,278.410 72.677,275.257 71.093 C 273.347 70.133,271.937 69.181,270.268 67.726 C 267.778 65.556,266.406 65.150,260.265 64.772 C 255.038 64.451,138.894 64.380,135.522 64.697 M72.942 65.551 C 77.737 66.060,78.984 66.501,82.310 68.868 C 83.332 69.596,85.090 70.692,86.215 71.303 C 89.591 73.138,90.792 74.539,92.200 78.287 C 92.482 79.037,93.388 81.001,94.214 82.652 C 96.582 87.385,96.465 90.994,93.756 96.827 C 93.166 98.097,92.293 100.211,91.815 101.526 C 90.281 105.748,89.561 106.576,85.742 108.517 C 84.341 109.228,82.286 110.420,81.175 111.164 C 76.821 114.081,77.072 114.058,50.269 114.058 C 26.057 114.059,28.108 114.275,21.460 111.028 C 9.786 105.326,7.150 101.602,7.168 90.838 C 7.183 81.162,9.661 76.377,17.142 71.574 C 24.869 66.613,25.998 66.000,28.221 65.554 C 30.193 65.159,69.224 65.156,72.942 65.551 M368.190 65.457 C 372.136 65.764,373.581 66.302,376.091 68.398 C 377.827 69.849,378.599 70.388,380.823 71.701 C 383.663 73.377,384.213 74.056,386.187 78.311 C 386.741 79.505,387.753 81.312,388.436 82.326 C 391.812 87.340,391.937 92.512,388.813 97.893 C 388.312 98.756,387.321 100.609,386.611 102.013 C 384.627 105.928,383.841 106.666,379.659 108.539 C 378.454 109.078,376.563 110.132,375.457 110.880 C 370.617 114.154,371.039 114.113,342.969 114.026 L 322.881 113.963 321.607 113.528 C 320.906 113.288,319.363 112.550,318.177 111.887 C 316.992 111.225,315.112 110.256,314.001 109.734 C 305.897 105.928,301.728 99.377,301.478 90.054 C 301.203 79.816,304.222 75.258,315.476 68.915 C 320.248 66.226,321.625 65.761,325.691 65.469 C 328.750 65.249,365.386 65.239,368.190 65.457 M262.127 65.846 C 265.873 66.137,267.221 66.695,270.652 69.371 C 271.352 69.918,272.952 70.891,274.206 71.533 C 277.764 73.356,278.966 74.511,280.838 77.903 C 281.195 78.550,282.121 80.049,282.897 81.235 C 285.058 84.537,285.556 86.216,285.540 90.147 C 285.524 93.987,285.023 95.470,282.685 98.582 C 281.833 99.716,280.608 101.652,279.961 102.886 C 278.306 106.043,277.358 106.951,273.864 108.728 C 272.367 109.489,270.260 110.695,269.182 111.408 C 268.104 112.121,266.649 112.899,265.948 113.138 L 264.674 113.572 201.176 113.631 C 134.230 113.693,134.656 113.698,130.426 112.795 C 126.956 112.055,125.642 111.326,122.073 108.163 C 115.925 102.715,114.564 100.725,113.440 95.541 C 113.044 93.715,113.104 86.005,113.531 83.862 C 114.660 78.196,115.663 76.778,122.051 71.819 C 127.185 67.833,128.951 66.896,132.897 66.068 C 134.948 65.638,256.758 65.428,262.127 65.846 " stroke="none" fill="#54548c" fill-rule="evenodd"></path><path id="path4" d="M130.633 62.041 C 124.240 62.820,122.724 63.566,120.341 67.107 C 118.842 69.333,118.575 69.565,116.040 70.838 C 111.412 73.162,110.079 77.406,110.062 89.858 C 110.047 101.538,111.572 106.607,115.789 108.889 C 118.266 110.231,118.886 110.792,120.302 112.978 C 122.544 116.439,123.966 117.225,129.054 117.819 C 131.657 118.123,262.715 118.291,265.654 117.994 C 269.450 117.611,271.966 116.580,274.865 114.221 C 275.835 113.432,277.379 112.199,278.295 111.483 C 280.214 109.981,281.293 108.891,282.956 106.769 C 283.608 105.938,284.765 104.518,285.527 103.613 C 289.088 99.385,289.781 96.873,289.606 88.829 C 289.383 78.583,287.712 75.624,278.099 68.447 C 277.075 67.683,275.488 66.429,274.571 65.660 C 272.520 63.938,270.353 62.836,267.908 62.271 L 266.046 61.841 199.412 61.810 C 144.945 61.785,132.386 61.827,130.633 62.041 M260.265 64.772 C 266.406 65.150,267.778 65.556,270.268 67.726 C 271.937 69.181,273.347 70.133,275.257 71.093 C 278.410 72.677,279.066 73.344,282.349 78.295 C 283.278 79.696,284.336 81.284,284.699 81.823 C 285.887 83.582,286.365 85.506,286.476 88.976 C 286.648 94.343,286.216 95.838,283.505 99.249 C 282.472 100.549,281.193 102.448,280.611 103.545 C 279.070 106.453,277.906 107.607,274.949 109.162 C 273.627 109.857,271.593 111.100,270.429 111.925 C 268.038 113.620,267.086 114.113,265.595 114.429 C 263.851 114.800,134.769 114.731,132.147 114.358 C 127.695 113.725,126.211 113.126,123.818 110.996 C 122.988 110.257,121.403 108.858,120.297 107.888 C 114.947 103.194,113.935 101.632,112.902 96.469 C 112.254 93.228,112.191 86.673,112.779 83.684 C 113.917 77.899,114.920 76.020,118.130 73.654 C 119.443 72.686,119.245 72.838,121.117 71.361 C 121.926 70.723,122.977 69.836,123.453 69.390 C 126.469 66.565,129.923 65.222,135.522 64.697 C 138.894 64.380,255.038 64.451,260.265 64.772 " stroke="none" fill="#343c84" fill-rule="evenodd"></path><path id="path5" d="M0.000 97.991 L 0.000 195.982 200.000 195.982 L 400.000 195.982 400.000 97.991 L 400.000 0.000 200.000 0.000 L 0.000 0.000 0.000 97.991 M77.903 62.102 C 82.402 62.779,83.887 63.459,87.803 66.634 C 91.845 69.911,93.113 71.363,94.580 74.392 C 95.743 76.794,96.043 77.239,97.599 78.872 C 100.511 81.929,101.040 83.463,100.996 88.732 C 100.941 95.319,100.275 97.292,97.276 99.753 C 95.498 101.213,94.828 102.228,94.062 104.618 C 92.879 108.312,91.901 109.535,88.801 111.204 C 87.368 111.976,86.687 112.508,85.396 113.868 C 82.849 116.550,81.278 117.325,77.386 117.821 C 74.420 118.198,29.004 118.197,26.164 117.819 C 19.981 116.996,17.751 115.962,14.996 112.639 C 13.839 111.244,12.807 110.484,10.289 109.172 C 5.512 106.684,4.385 103.537,4.178 92.112 C 3.942 79.074,5.410 73.964,10.123 71.407 C 12.843 69.932,13.385 69.479,16.022 66.486 C 18.136 64.085,21.821 62.554,26.969 61.938 C 29.192 61.672,76.049 61.822,77.903 62.102 M267.908 62.271 C 270.353 62.836,272.520 63.938,274.571 65.660 C 275.488 66.429,277.075 67.683,278.099 68.447 C 287.712 75.624,289.383 78.583,289.606 88.829 C 289.781 96.873,289.088 99.385,285.527 103.613 C 284.765 104.518,283.608 105.938,282.956 106.769 C 281.293 108.891,280.214 109.981,278.295 111.483 C 277.379 112.199,275.835 113.432,274.865 114.221 C 271.966 116.580,269.450 117.611,265.654 117.994 C 262.715 118.291,131.657 118.123,129.054 117.819 C 123.966 117.225,122.544 116.439,120.302 112.978 C 118.886 110.792,118.266 110.231,115.789 108.889 C 111.572 106.607,110.047 101.538,110.062 89.858 C 110.079 77.406,111.412 73.162,116.040 70.838 C 118.575 69.565,118.842 69.333,120.341 67.107 C 122.724 63.566,124.240 62.820,130.633 62.041 C 132.386 61.827,144.945 61.785,199.412 61.810 L 266.046 61.841 267.908 62.271 M371.485 61.936 C 375.289 62.363,377.616 63.260,379.975 65.207 C 386.349 70.469,386.849 71.011,388.561 74.497 C 389.556 76.526,389.826 76.895,391.548 78.589 C 394.863 81.850,395.202 82.955,395.189 90.446 C 395.175 97.913,394.639 99.696,391.109 103.998 C 390.945 104.198,390.242 105.073,389.547 105.943 C 387.529 108.466,386.172 109.568,383.390 110.943 C 381.101 112.074,380.801 112.291,378.953 114.150 C 376.610 116.508,375.286 117.183,371.927 117.732 C 369.197 118.179,323.401 118.254,320.627 117.816 C 315.797 117.054,312.995 115.692,309.588 112.453 C 308.529 111.445,307.073 110.240,306.354 109.775 C 305.635 109.310,304.341 108.472,303.479 107.914 C 302.334 107.173,301.715 106.610,301.187 105.826 C 297.519 100.386,297.070 81.023,300.465 74.654 C 301.235 73.210,302.019 72.514,304.290 71.261 C 306.571 70.002,307.369 69.336,309.341 67.045 C 312.011 63.944,315.413 62.586,322.097 61.954 C 324.678 61.710,369.327 61.693,371.485 61.936 " stroke="none" fill="#142c8c" fill-rule="evenodd"></path><path id="path6" d="M26.969 61.938 C 21.821 62.554,18.136 64.085,16.022 66.486 C 13.385 69.479,12.843 69.932,10.123 71.407 C 5.410 73.964,3.942 79.074,4.178 92.112 C 4.385 103.537,5.512 106.684,10.289 109.172 C 12.807 110.484,13.839 111.244,14.996 112.639 C 17.751 115.962,19.981 116.996,26.164 117.819 C 29.004 118.197,74.420 118.198,77.386 117.821 C 81.278 117.325,82.849 116.550,85.396 113.868 C 86.687 112.508,87.368 111.976,88.801 111.204 C 91.901 109.535,92.879 108.312,94.062 104.618 C 94.828 102.228,95.498 101.213,97.276 99.753 C 100.275 97.292,100.941 95.319,100.996 88.732 C 101.040 83.463,100.511 81.929,97.599 78.872 C 96.043 77.239,95.743 76.794,94.580 74.392 C 93.113 71.363,91.845 69.911,87.803 66.634 C 83.887 63.459,82.402 62.779,77.903 62.102 C 76.049 61.822,29.192 61.672,26.969 61.938 M322.097 61.954 C 315.413 62.586,312.011 63.944,309.341 67.045 C 307.369 69.336,306.571 70.002,304.290 71.261 C 302.019 72.514,301.235 73.210,300.465 74.654 C 297.070 81.023,297.519 100.386,301.187 105.826 C 301.715 106.610,302.334 107.173,303.479 107.914 C 304.341 108.472,305.635 109.310,306.354 109.775 C 307.073 110.240,308.529 111.445,309.588 112.453 C 312.995 115.692,315.797 117.054,320.627 117.816 C 323.401 118.254,369.197 118.179,371.927 117.732 C 375.286 117.183,376.610 116.508,378.953 114.150 C 380.801 112.291,381.101 112.074,383.390 110.943 C 386.172 109.568,387.529 108.466,389.547 105.943 C 390.242 105.073,390.945 104.198,391.109 103.998 C 394.639 99.696,395.175 97.913,395.189 90.446 C 395.202 82.955,394.863 81.850,391.548 78.589 C 389.826 76.895,389.556 76.526,388.561 74.497 C 386.849 71.011,386.349 70.469,379.975 65.207 C 377.616 63.260,375.289 62.363,371.485 61.936 C 369.327 61.693,324.678 61.710,322.097 61.954 M74.103 64.383 C 78.579 64.822,80.551 65.505,82.803 67.393 C 83.449 67.935,84.714 68.846,85.612 69.417 C 86.511 69.988,87.898 70.871,88.694 71.379 C 90.427 72.485,91.581 73.942,92.498 76.181 C 93.642 78.975,94.217 80.099,95.400 81.850 C 97.614 85.128,97.929 86.282,97.590 89.861 C 97.243 93.519,97.042 94.116,95.131 97.161 C 93.734 99.386,93.405 100.069,92.389 102.862 C 91.016 106.636,90.252 107.498,86.650 109.342 C 85.229 110.069,83.669 111.074,82.509 112.011 C 78.104 115.566,78.916 115.483,49.290 115.395 C 25.331 115.323,27.219 115.435,23.455 113.868 C 20.451 112.617,11.460 106.716,9.760 104.880 C 7.041 101.943,5.950 97.441,6.128 89.890 C 6.386 78.868,7.799 76.504,18.650 68.932 C 23.459 65.577,24.616 64.991,27.634 64.381 C 29.646 63.974,69.960 63.976,74.103 64.383 M369.228 64.289 C 373.389 64.657,374.716 65.228,377.724 67.944 C 378.496 68.641,380.105 69.818,381.298 70.560 C 384.292 72.421,384.990 73.228,386.754 76.865 C 387.839 79.101,388.533 80.250,389.484 81.385 C 392.098 84.502,392.426 85.463,392.438 90.054 C 392.451 94.728,392.054 96.105,389.741 99.427 C 389.053 100.416,387.970 102.192,387.336 103.375 C 385.883 106.084,384.615 107.412,382.506 108.430 C 381.672 108.833,380.335 109.478,379.536 109.864 C 378.722 110.256,377.318 111.207,376.351 112.020 C 372.240 115.475,373.969 115.281,346.499 115.378 C 320.014 115.471,321.028 115.545,317.257 113.236 C 316.362 112.688,314.365 111.506,312.819 110.608 C 303.605 105.260,300.813 100.728,300.341 90.348 C 299.927 81.254,301.880 76.781,308.378 71.932 C 316.390 65.954,318.987 64.741,324.743 64.289 C 327.667 64.060,366.638 64.060,369.228 64.289 " stroke="none" fill="#344090" fill-rule="evenodd"></path><path id="path7" d="" stroke="none" fill="#144490" fill-rule="evenodd"></path><path id="path8" d="" stroke="none" fill="#142c94" fill-rule="evenodd"></path></g></svg>