<svg width="625" height="400" viewBox="0 0 625 400" fill="none" xmlns="http://www.w3.org/2000/svg">
<path d="M418.945 399.751C471.327 401.838 549.067 366.762 549.067 366.762C549.067 366.762 587.811 308.031 601.15 265.672C619.41 207.687 636.399 166.118 612.106 110.391C585.989 50.48 540.092 30.1754 477.721 10.6474C438.189 -1.73006 372.109 0.748806 372.109 0.748806L0.0126843 300.796C0.0126843 300.796 67.3869 387.727 129.375 394.313C187.848 400.524 210.292 338.818 269.091 338.173C332.357 337.48 355.725 397.231 418.945 399.751Z" fill="#060E40"/>
<path d="M418.945 399.751C471.327 401.838 549.067 366.762 549.067 366.762C549.067 366.762 587.811 308.031 601.15 265.672C619.41 207.687 636.399 166.118 612.106 110.391C585.989 50.48 540.092 30.1754 477.721 10.6474C438.189 -1.73006 372.109 0.748806 372.109 0.748806L0.0126843 300.796C0.0126843 300.796 67.3869 387.727 129.375 394.313C187.848 400.524 210.292 338.818 269.091 338.173C332.357 337.48 355.725 397.231 418.945 399.751Z" fill="#030E4A" fill-opacity="0.8"/>
</svg>
